<?xml version="1.0" encoding="UTF-8" standalone="no"?>
<!-- Created with Inkscape (http://www.inkscape.org/) -->

<svg
   xmlns:dc="http://purl.org/dc/elements/1.1/"
   xmlns:cc="http://creativecommons.org/ns#"
   xmlns:rdf="http://www.w3.org/1999/02/22-rdf-syntax-ns#"
   xmlns:svg="http://www.w3.org/2000/svg"
   xmlns="http://www.w3.org/2000/svg"
   xmlns:sodipodi="http://sodipodi.sourceforge.net/DTD/sodipodi-0.dtd"
   xmlns:inkscape="http://www.inkscape.org/namespaces/inkscape"
   width="744.09448819"
   height="1052.3622047"
   id="svg2"
   version="1.1"
   inkscape:version="0.48.3.1 r9886"
   sodipodi:docname="menu-bar-icons.svg">
  <defs
     id="defs4" />
  <sodipodi:namedview
     id="base"
     pagecolor="#ffffff"
     bordercolor="#666666"
     borderopacity="1.0"
     inkscape:pageopacity="0.0"
     inkscape:pageshadow="2"
     inkscape:zoom="0.35"
     inkscape:cx="150.84606"
     inkscape:cy="1056.6423"
     inkscape:document-units="px"
     inkscape:current-layer="layer1"
     showgrid="false"
     inkscape:window-width="1024"
     inkscape:window-height="541"
     inkscape:window-x="0"
     inkscape:window-y="27"
     inkscape:window-maximized="1">
    <inkscape:grid
       type="xygrid"
       id="grid4111"
       empspacing="5"
       visible="true"
       enabled="true"
       snapvisiblegridlinesonly="true"
       spacingx="0.5px"
       spacingy="0.5px" />
  </sodipodi:namedview>
  <metadata
     id="metadata7">
    <rdf:RDF>
      <cc:Work
         rdf:about="">
        <dc:format>image/svg+xml</dc:format>
        <dc:type
           rdf:resource="http://purl.org/dc/dcmitype/StillImage" />
        <dc:title />
      </cc:Work>
    </rdf:RDF>
  </metadata>
  <g
     inkscape:label="Layer 1"
     inkscape:groupmode="layer"
     id="layer1">
    <path
       style="fill:#505534;fill-opacity:1;opacity:1"
       d="m 302.59263,97.769553 44.19417,-44.19417 5.3033,5.3033 -42.4264,42.426397 -3.00521,15.37958 15.37958,-3.00521 42.4264,-42.426397 5.3033,5.3033 -44.19417,44.194167 -27.40039,4.41942 z m 12.37438,5.303287 40.65863,-40.658627 5.3033,5.30329 -40.65863,40.658637 z m 35.35533,-53.032997 5.3033,-5.3033 22.98097,22.98096 -5.3033,5.30331 z m 8.83883,-8.83883 8.83883,-8.83883 22.98098,22.98097 -8.83884,8.83883 z"
       id="path4147"
       inkscape:connector-curvature="0"
       sodipodi:nodetypes="cccccccccccccccccccccccccc" />
    <path
       style="fill:#505534;fill-opacity:1;fill-rule:nonzero;stroke:none"
       d="m 79.674082,107.22276 c -23.18546,-14.313211 -26.74573,-40.230971 -7.95206,-57.888951 18.79367,-17.658 52.824468,-20.36948 76.009938,-6.05627 23.18546,14.31319 26.74573,40.23097 7.95206,57.888941 -14.602,13.71962 -43.16337,20.28836 -64.899998,14.1363 0,0 -7.366393,2.57185 -12.875403,4.19251 -5.50901,1.62066 -15.538557,3.56689 -15.538557,3.56689 z"
       id="path4115"
       inkscape:connector-curvature="0"
       sodipodi:nodetypes="cssscscc" />
    <path
       style="opacity:1;fill:#505534;fill-opacity:1;fill-rule:nonzero;stroke:none"
       d="m 234.17698,38.791794 c -4.80093,-0.0246 -50.81663,78.736206 -48.4375,82.906246 2.37913,4.17004 93.57821,4.64541 96,0.5 2.42179,-4.14541 -42.76157,-83.381616 -47.5625,-83.406246 z m 0.21875,22.15625 c 4.05607,0 7.88142,3.32346 7.34375,7.34375 -0.89286,6.67616 -0.95681,6.63398 -2.50011,18.75 -0.38122,2.99282 -2.27123,7.3125 -4.84364,7.3125 -2.60398,0 -4.36864,-4.32831 -4.81236,-7.3125 -1.72187,-11.5803 -1.78585,-11.72405 -2.50014,-18.75 -0.41024,-4.03528 3.25643,-7.34375 7.3125,-7.34375 z m -0.0937,36.78125 c 4.25393,0 7.71875,3.433566 7.71875,7.687496 0,4.25393 -3.46482,7.71875 -7.71875,7.71875 -4.25393,0 -7.6875,-3.46482 -7.6875,-7.71875 0,-4.25393 3.43357,-7.687496 7.6875,-7.687496 z"
       id="path4938"
       inkscape:connector-curvature="0"
       sodipodi:nodetypes="ssssssssssssssss" />
    <path
       style="opacity:1;fill:#505534;fill-opacity:1;fill-rule:nonzero;stroke:none"
       d="m 67.375003,168.95536 c -4.05607,0 -7.3125,3.28768 -7.3125,7.34375 l 0,52.25 c 0,4.05607 3.25643,7.34375 7.3125,7.34375 l 82.593747,0 c 4.05607,0 7.3125,-3.28768 7.3125,-7.34375 l 0,-52.25 c 0,-4.05607 -3.25643,-7.34375 -7.3125,-7.34375 l -82.593747,0 z m 5.09375,14.125 a 1.50015,1.50015 0 0 1 0.84375,0.3125 l 35.749997,25.8125 35.75,-25.8125 a 1.5003255,1.5003255 0 1 1 1.75,2.4375 l -21.875,15.8125 c 6.6642,7.01122 9.99072,10.46055 11.46875,11.96875 0.68624,0.70024 0.95319,0.9591 1.0625,1.0625 0.006,0.006 0.0575,0.0575 0.0625,0.0625 a 1.50015,1.50015 0 0 1 0.0625,0.0313 c -0.002,-0.001 0.004,0.0353 0,0.0313 a 1.50015,1.50015 0 0 1 0.21875,0.1875 c 0,0 0.0244,0.0394 0.0625,0.0937 0.019,0.0272 0.0482,0.0741 0.0937,0.15625 0.0227,0.0411 0.0537,0.0819 0.0937,0.1875 0.0201,0.0528 0.0624,0.21833 0.0625,0.21875 1e-4,4.2e-4 0.0313,0.46844 0.0313,0.46875 0,1.5e-4 -0.0937,0.40613 -0.0937,0.40625 -5e-5,1.2e-4 -0.28117,0.43741 -0.28125,0.4375 -8e-5,9e-5 -0.46863,0.34369 -0.46875,0.34375 -1.2e-4,6e-5 -0.46859,0.15623 -0.46875,0.15625 -3.2e-4,0 -0.53077,-0.0311 -0.53125,-0.0313 -4.8e-4,-1e-4 -0.191,-0.0682 -0.25,-0.0937 -0.2359,-0.1026 -0.265,-0.1521 -0.3125,-0.1875 -0.095,-0.0709 -0.1382,-0.0802 -0.1875,-0.125 -0.19718,-0.17925 -0.50143,-0.48551 -1.28125,-1.28125 -1.53057,-1.5618 -4.88678,-5.05556 -11.8125,-12.34375 l -12.28125,8.875 -0.875,0.625 -0.875,-0.625 -12.718747,-9.1875 -14.65625,13.9375 a 1.5027644,1.5027644 0 1 1 -2.09375,-2.15625 l 14.28125,-13.5625 -21.4375,-15.46875 a 1.50015,1.50015 0 0 1 0.625,-2.71875 1.50015,1.50015 0 0 1 0.28125,-0.0313 z"
       id="rect4970"
       inkscape:connector-curvature="0" />
    <path
       style="fill:#505534;fill-opacity:1;fill-rule:nonzero;stroke:none;opacity:1"
       d="m 457.84821,33.500005 -2.8125,2.84375 -45.96875,45.96875 5.65625,5.65625 43.125,-43.15625 22.625,22.625 19.75,19.75 5.65625,-5.65625 -14.25,-14.25 0,-32.03125 -11.15625,0 0,20.875 -19.78125,-19.78125 -2.84375,-2.84375 z m 0,18.125 -40.71875,41.40625 0,24.156245 c 0,4.05607 2.73017,7.3125 6.09375,7.3125 l 69.28125,0 c 3.36357,0 6.0625,-3.25643 6.0625,-7.3125 l 0,-24.156245 -40.71875,-41.40625 z m -9.625,36.09375 19.28125,0 c 0.79143,0 1.4375,0.79196 1.4375,1.78125 l 0,26.437495 c 0,0.98929 -0.64607,1.78125 -1.4375,1.78125 l -19.28125,0 c -0.79143,0 -1.4375,-0.79196 -1.4375,-1.78125 l 0,-26.437495 c 0,-0.98929 0.64607,-1.78125 1.4375,-1.78125 z"
       id="rect5010"
       inkscape:connector-curvature="0" />
    <path
       style="fill:#505534;fill-opacity:1;fill-rule:nonzero;stroke:none"
       d="m 253.81042,143.62579 c -4.83249,0 -8.75,5.41868 -8.75,12.125 0,0.38779 0.0369,0.77776 0.0625,1.15625 -9.14902,0.66764 -16.3125,8.2686 -16.3125,17.59375 0,0 0.95948,25.74273 -2.15625,38.0625 -1.42517,5.63521 -10.84647,12.05597 -7.40625,15.78125 8.19354,8.87246 20.50705,6.99982 34.8125,7.16518 14.30544,0.16535 25.93933,1.63332 35.6875,-5.69643 4.27326,-3.21311 -7.12797,-10.77476 -8.8125,-16.90625 -3.39799,-12.36823 -2.125,-38.40625 -2.125,-38.40625 0,-9.30634 -7.15869,-16.86836 -16.28125,-17.5625 0.027,-0.38837 0.0313,-0.7893 0.0313,-1.1875 0,-6.70632 -3.91751,-12.125 -8.75,-12.125 z m 0.0625,3.5625 c 2.99348,0 5.4375,4.47715 5.4375,10 l -10.84375,0 c 0,-5.52285 2.41277,-10 5.40625,-10 z"
       id="rect4060"
       inkscape:connector-curvature="0"
       sodipodi:nodetypes="ssccsssssccssssccs" />
    <path
       style="fill:#505534;fill-opacity:1;fill-rule:nonzero;stroke:none"
       d="m 267.71075,169.855 c -0.74312,-2.94511 -2.30959,-5.6398 -4.63109,-7.61724 0.65763,-0.17254 3.84518,0.90208 5.01617,2.146 2.83018,2.9625 4.03374,7.06211 5.09306,10.92413 2.53456,9.92496 0.18489,20.26479 2.03666,30.26403 0.9978,5.11128 3.46512,9.7615 5.32946,14.5846 0.51181,1.43794 2.13798,4.54456 1.52079,5.01087 -4.91919,-3.50963 -8.33233,-8.89331 -9.584,-14.78641 -2.08098,-7.9228 -2.04678,-16.1543 -2.15275,-24.28187 -0.11775,-5.50406 -0.83715,-11.01923 -2.6283,-16.24411 z"
       id="path4087"
       inkscape:connector-curvature="0" />
  </g>
</svg>
